<mxfile host="app.diagrams.net" modified="2022-05-01T07:50:39.926Z" agent="5.0 (Windows NT 10.0; Win64; x64) AppleWebKit/537.36 (KHTML, like Gecko) Chrome/100.0.4896.127 Safari/537.36" etag="_LlO4R3XQdhkSx0kPxuU" version="17.5.0" type="github">
  <diagram id="BhV1xm2JvFmINTF3WGDD" name="Page-1">
    <mxGraphModel dx="1240" dy="573" grid="1" gridSize="10" guides="1" tooltips="1" connect="1" arrows="1" fold="1" page="1" pageScale="1" pageWidth="850" pageHeight="1100" math="0" shadow="0">
      <root>
        <mxCell id="0" />
        <mxCell id="1" parent="0" />
        <mxCell id="dnKSNdWTx9FiJcK_NPvC-1" value="&lt;font style=&quot;font-size: 23px&quot;&gt;48&lt;/font&gt;" style="ellipse;whiteSpace=wrap;html=1;aspect=fixed;fontSize=12;" parent="1" vertex="1">
          <mxGeometry x="290" y="460" width="60" height="60" as="geometry" />
        </mxCell>
        <mxCell id="dnKSNdWTx9FiJcK_NPvC-2" value="&lt;font style=&quot;font-size: 23px&quot;&gt;38&lt;/font&gt;" style="ellipse;whiteSpace=wrap;html=1;aspect=fixed;fontSize=12;" parent="1" vertex="1">
          <mxGeometry x="220" y="550" width="60" height="60" as="geometry" />
        </mxCell>
        <mxCell id="dnKSNdWTx9FiJcK_NPvC-3" value="&lt;font&gt;&lt;font style=&quot;font-size: 23px&quot;&gt;47&lt;/font&gt;&lt;br&gt;&lt;/font&gt;" style="ellipse;whiteSpace=wrap;html=1;aspect=fixed;fontSize=12;" parent="1" vertex="1">
          <mxGeometry x="355" y="550" width="60" height="60" as="geometry" />
        </mxCell>
        <mxCell id="dnKSNdWTx9FiJcK_NPvC-4" value="&lt;font style=&quot;font-size: 23px&quot;&gt;32&lt;/font&gt;" style="ellipse;whiteSpace=wrap;html=1;aspect=fixed;fontSize=12;" parent="1" vertex="1">
          <mxGeometry x="160" y="640" width="60" height="60" as="geometry" />
        </mxCell>
        <mxCell id="dnKSNdWTx9FiJcK_NPvC-5" value="&lt;font style=&quot;font-size: 23px&quot;&gt;33&lt;/font&gt;" style="ellipse;whiteSpace=wrap;html=1;aspect=fixed;fontSize=12;" parent="1" vertex="1">
          <mxGeometry x="250" y="640" width="60" height="60" as="geometry" />
        </mxCell>
        <mxCell id="dnKSNdWTx9FiJcK_NPvC-6" value="" style="endArrow=none;html=1;rounded=0;fontSize=23;entryX=0.5;entryY=1;entryDx=0;entryDy=0;" parent="1" target="dnKSNdWTx9FiJcK_NPvC-1" edge="1">
          <mxGeometry width="50" height="50" relative="1" as="geometry">
            <mxPoint x="390" y="550" as="sourcePoint" />
            <mxPoint x="440" y="500" as="targetPoint" />
          </mxGeometry>
        </mxCell>
        <mxCell id="dnKSNdWTx9FiJcK_NPvC-7" value="" style="endArrow=none;html=1;rounded=0;fontSize=23;entryX=0.348;entryY=0.993;entryDx=0;entryDy=0;exitX=1;exitY=0;exitDx=0;exitDy=0;entryPerimeter=0;" parent="1" source="dnKSNdWTx9FiJcK_NPvC-2" target="dnKSNdWTx9FiJcK_NPvC-1" edge="1">
          <mxGeometry width="50" height="50" relative="1" as="geometry">
            <mxPoint x="400" y="560" as="sourcePoint" />
            <mxPoint x="330" y="530" as="targetPoint" />
          </mxGeometry>
        </mxCell>
        <mxCell id="dnKSNdWTx9FiJcK_NPvC-8" value="" style="endArrow=none;html=1;rounded=0;fontSize=23;entryX=0.285;entryY=0.937;entryDx=0;entryDy=0;exitX=1;exitY=0;exitDx=0;exitDy=0;entryPerimeter=0;" parent="1" target="dnKSNdWTx9FiJcK_NPvC-2" edge="1">
          <mxGeometry width="50" height="50" relative="1" as="geometry">
            <mxPoint x="200.21320343559637" y="642.7867965644034" as="sourcePoint" />
            <mxPoint x="239.87999999999988" y="603.58" as="targetPoint" />
          </mxGeometry>
        </mxCell>
        <mxCell id="dnKSNdWTx9FiJcK_NPvC-9" value="" style="endArrow=none;html=1;rounded=0;fontSize=23;entryX=0.5;entryY=1;entryDx=0;entryDy=0;exitX=0.5;exitY=0;exitDx=0;exitDy=0;" parent="1" source="dnKSNdWTx9FiJcK_NPvC-5" edge="1">
          <mxGeometry width="50" height="50" relative="1" as="geometry">
            <mxPoint x="330" y="640" as="sourcePoint" />
            <mxPoint x="260" y="610" as="targetPoint" />
          </mxGeometry>
        </mxCell>
        <mxCell id="dnKSNdWTx9FiJcK_NPvC-14" value="&lt;font style=&quot;font-size: 23px&quot;&gt;33&lt;/font&gt;" style="ellipse;whiteSpace=wrap;html=1;aspect=fixed;fontSize=12;" parent="1" vertex="1">
          <mxGeometry x="540" y="460" width="60" height="60" as="geometry" />
        </mxCell>
        <mxCell id="dnKSNdWTx9FiJcK_NPvC-15" value="&lt;font style=&quot;font-size: 23px&quot;&gt;38&lt;/font&gt;" style="ellipse;whiteSpace=wrap;html=1;aspect=fixed;fontSize=12;" parent="1" vertex="1">
          <mxGeometry x="470" y="550" width="60" height="60" as="geometry" />
        </mxCell>
        <mxCell id="dnKSNdWTx9FiJcK_NPvC-16" value="&lt;font&gt;&lt;font style=&quot;font-size: 23px&quot;&gt;47&lt;/font&gt;&lt;br&gt;&lt;/font&gt;" style="ellipse;whiteSpace=wrap;html=1;aspect=fixed;fontSize=12;" parent="1" vertex="1">
          <mxGeometry x="605" y="550" width="60" height="60" as="geometry" />
        </mxCell>
        <mxCell id="dnKSNdWTx9FiJcK_NPvC-17" value="&lt;font style=&quot;font-size: 23px&quot;&gt;32&lt;/font&gt;" style="ellipse;whiteSpace=wrap;html=1;aspect=fixed;fontSize=12;" parent="1" vertex="1">
          <mxGeometry x="410" y="640" width="60" height="60" as="geometry" />
        </mxCell>
        <mxCell id="dnKSNdWTx9FiJcK_NPvC-19" value="" style="endArrow=none;html=1;rounded=0;fontSize=23;entryX=0.5;entryY=1;entryDx=0;entryDy=0;" parent="1" target="dnKSNdWTx9FiJcK_NPvC-14" edge="1">
          <mxGeometry width="50" height="50" relative="1" as="geometry">
            <mxPoint x="640" y="550" as="sourcePoint" />
            <mxPoint x="690" y="500" as="targetPoint" />
          </mxGeometry>
        </mxCell>
        <mxCell id="dnKSNdWTx9FiJcK_NPvC-20" value="" style="endArrow=none;html=1;rounded=0;fontSize=23;entryX=0.348;entryY=0.993;entryDx=0;entryDy=0;exitX=1;exitY=0;exitDx=0;exitDy=0;entryPerimeter=0;" parent="1" source="dnKSNdWTx9FiJcK_NPvC-15" target="dnKSNdWTx9FiJcK_NPvC-14" edge="1">
          <mxGeometry width="50" height="50" relative="1" as="geometry">
            <mxPoint x="650" y="560" as="sourcePoint" />
            <mxPoint x="580" y="530" as="targetPoint" />
          </mxGeometry>
        </mxCell>
        <mxCell id="dnKSNdWTx9FiJcK_NPvC-21" value="" style="endArrow=none;html=1;rounded=0;fontSize=23;entryX=0.285;entryY=0.937;entryDx=0;entryDy=0;exitX=1;exitY=0;exitDx=0;exitDy=0;entryPerimeter=0;" parent="1" target="dnKSNdWTx9FiJcK_NPvC-15" edge="1">
          <mxGeometry width="50" height="50" relative="1" as="geometry">
            <mxPoint x="450.21320343559637" y="642.7867965644034" as="sourcePoint" />
            <mxPoint x="489.8799999999999" y="603.58" as="targetPoint" />
          </mxGeometry>
        </mxCell>
        <mxCell id="dnKSNdWTx9FiJcK_NPvC-23" value="&lt;font style=&quot;font-size: 23px&quot;&gt;47&lt;/font&gt;" style="ellipse;whiteSpace=wrap;html=1;aspect=fixed;fontSize=12;" parent="1" vertex="1">
          <mxGeometry x="795" y="460" width="60" height="60" as="geometry" />
        </mxCell>
        <mxCell id="dnKSNdWTx9FiJcK_NPvC-24" value="&lt;font style=&quot;font-size: 23px&quot;&gt;38&lt;/font&gt;" style="ellipse;whiteSpace=wrap;html=1;aspect=fixed;fontSize=12;" parent="1" vertex="1">
          <mxGeometry x="725" y="550" width="60" height="60" as="geometry" />
        </mxCell>
        <mxCell id="dnKSNdWTx9FiJcK_NPvC-25" value="&lt;font&gt;&lt;font style=&quot;font-size: 23px&quot;&gt;33&lt;/font&gt;&lt;br&gt;&lt;/font&gt;" style="ellipse;whiteSpace=wrap;html=1;aspect=fixed;fontSize=12;" parent="1" vertex="1">
          <mxGeometry x="860" y="550" width="60" height="60" as="geometry" />
        </mxCell>
        <mxCell id="dnKSNdWTx9FiJcK_NPvC-26" value="&lt;font style=&quot;font-size: 23px&quot;&gt;32&lt;/font&gt;" style="ellipse;whiteSpace=wrap;html=1;aspect=fixed;fontSize=12;" parent="1" vertex="1">
          <mxGeometry x="665" y="640" width="60" height="60" as="geometry" />
        </mxCell>
        <mxCell id="dnKSNdWTx9FiJcK_NPvC-27" value="" style="endArrow=none;html=1;rounded=0;fontSize=23;entryX=0.5;entryY=1;entryDx=0;entryDy=0;" parent="1" target="dnKSNdWTx9FiJcK_NPvC-23" edge="1">
          <mxGeometry width="50" height="50" relative="1" as="geometry">
            <mxPoint x="895" y="550" as="sourcePoint" />
            <mxPoint x="945" y="500" as="targetPoint" />
          </mxGeometry>
        </mxCell>
        <mxCell id="dnKSNdWTx9FiJcK_NPvC-28" value="" style="endArrow=none;html=1;rounded=0;fontSize=23;entryX=0.348;entryY=0.993;entryDx=0;entryDy=0;exitX=1;exitY=0;exitDx=0;exitDy=0;entryPerimeter=0;" parent="1" source="dnKSNdWTx9FiJcK_NPvC-24" target="dnKSNdWTx9FiJcK_NPvC-23" edge="1">
          <mxGeometry width="50" height="50" relative="1" as="geometry">
            <mxPoint x="905" y="560" as="sourcePoint" />
            <mxPoint x="835" y="530" as="targetPoint" />
          </mxGeometry>
        </mxCell>
        <mxCell id="dnKSNdWTx9FiJcK_NPvC-29" value="" style="endArrow=none;html=1;rounded=0;fontSize=23;entryX=0.285;entryY=0.937;entryDx=0;entryDy=0;exitX=1;exitY=0;exitDx=0;exitDy=0;entryPerimeter=0;" parent="1" target="dnKSNdWTx9FiJcK_NPvC-24" edge="1">
          <mxGeometry width="50" height="50" relative="1" as="geometry">
            <mxPoint x="705.2132034355964" y="642.7867965644034" as="sourcePoint" />
            <mxPoint x="744.8799999999999" y="603.58" as="targetPoint" />
          </mxGeometry>
        </mxCell>
        <mxCell id="JejmYuZqtl6U9vylK7YP-1" value="&lt;font style=&quot;font-size: 23px&quot;&gt;A&lt;/font&gt;" style="ellipse;whiteSpace=wrap;html=1;aspect=fixed;fontSize=12;" vertex="1" parent="1">
          <mxGeometry x="130" y="970" width="60" height="60" as="geometry" />
        </mxCell>
        <mxCell id="JejmYuZqtl6U9vylK7YP-2" value="&lt;font style=&quot;font-size: 23px&quot;&gt;B&lt;/font&gt;&lt;span style=&quot;color: rgba(0 , 0 , 0 , 0) ; font-family: monospace ; font-size: 0px&quot;&gt;%3CmxGraphModel%3E%3Croot%3E%3CmxCell%20id%3D%220%22%2F%3E%3CmxCell%20id%3D%221%22%20parent%3D%220%22%2F%3E%3CmxCell%20id%3D%222%22%20value%3D%22%26lt%3Bfont%20style%3D%26quot%3Bfont-size%3A%2023px%26quot%3B%26gt%3BA%26lt%3B%2Ffont%26gt%3B%22%20style%3D%22ellipse%3BwhiteSpace%3Dwrap%3Bhtml%3D1%3Baspect%3Dfixed%3BfontSize%3D12%3B%22%20vertex%3D%221%22%20parent%3D%221%22%3E%3CmxGeometry%20x%3D%22140%22%20y%3D%22970%22%20width%3D%2260%22%20height%3D%2260%22%20as%3D%22geometry%22%2F%3E%3C%2FmxCell%3E%3C%2Froot%3E%3C%2FmxGraphModel%3E&lt;/span&gt;" style="ellipse;whiteSpace=wrap;html=1;aspect=fixed;fontSize=12;" vertex="1" parent="1">
          <mxGeometry x="260" y="870" width="60" height="60" as="geometry" />
        </mxCell>
        <mxCell id="JejmYuZqtl6U9vylK7YP-3" value="&lt;span style=&quot;font-size: 23px&quot;&gt;H&lt;/span&gt;" style="ellipse;whiteSpace=wrap;html=1;aspect=fixed;fontSize=12;" vertex="1" parent="1">
          <mxGeometry x="260" y="1020" width="60" height="60" as="geometry" />
        </mxCell>
        <mxCell id="JejmYuZqtl6U9vylK7YP-4" value="&lt;span style=&quot;font-size: 23px&quot;&gt;C&lt;/span&gt;&lt;span style=&quot;color: rgba(0 , 0 , 0 , 0) ; font-family: monospace ; font-size: 0px&quot;&gt;%3CmxGraphModel%3E%3Croot%3E%3CmxCell%20id%3D%220%22%2F%3E%3CmxCell%20id%3D%221%22%20parent%3D%220%22%2F%3E%3CmxCell%20id%3D%222%22%20value%3D%22%26lt%3Bfont%20style%3D%26quot%3Bfont-size%3A%2023px%26quot%3B%26gt%3BB%26lt%3B%2Ffont%26gt%3B%26lt%3Bspan%20style%3D%26quot%3Bcolor%3A%20rgba(0%20%2C%200%20%2C%200%20%2C%200)%20%3B%20font-family%3A%20monospace%20%3B%20font-size%3A%200px%26quot%3B%26gt%3B%253CmxGraphModel%253E%253Croot%253E%253CmxCell%2520id%253D%25220%2522%252F%253E%253CmxCell%2520id%253D%25221%2522%2520parent%253D%25220%2522%252F%253E%253CmxCell%2520id%253D%25222%2522%2520value%253D%2522%2526lt%253Bfont%2520style%253D%2526quot%253Bfont-size%253A%252023px%2526quot%253B%2526gt%253BA%2526lt%253B%252Ffont%2526gt%253B%2522%2520style%253D%2522ellipse%253BwhiteSpace%253Dwrap%253Bhtml%253D1%253Baspect%253Dfixed%253BfontSize%253D12%253B%2522%2520vertex%253D%25221%2522%2520parent%253D%25221%2522%253E%253CmxGeometry%2520x%253D%2522140%2522%2520y%253D%2522970%2522%2520width%253D%252260%2522%2520height%253D%252260%2522%2520as%253D%2522geometry%2522%252F%253E%253C%252FmxCell%253E%253C%252Froot%253E%253C%252FmxGraphModel%253E%26lt%3B%2Fspan%26gt%3B%22%20style%3D%22ellipse%3BwhiteSpace%3Dwrap%3Bhtml%3D1%3Baspect%3Dfixed%3BfontSize%3D12%3B%22%20vertex%3D%221%22%20parent%3D%221%22%3E%3CmxGeometry%20x%3D%22260%22%20y%3D%22870%22%20width%3D%2260%22%20height%3D%2260%22%20as%3D%22geometry%22%2F%3E%3C%2FmxCell%3E%3C%2Froot%3E%3C%2FmxGraphModel%3E&lt;/span&gt;&lt;span style=&quot;color: rgba(0 , 0 , 0 , 0) ; font-family: monospace ; font-size: 0px&quot;&gt;%3CmxGraphModel%3E%3Croot%3E%3CmxCell%20id%3D%220%22%2F%3E%3CmxCell%20id%3D%221%22%20parent%3D%220%22%2F%3E%3CmxCell%20id%3D%222%22%20value%3D%22%26lt%3Bfont%20style%3D%26quot%3Bfont-size%3A%2023px%26quot%3B%26gt%3BB%26lt%3B%2Ffont%26gt%3B%26lt%3Bspan%20style%3D%26quot%3Bcolor%3A%20rgba(0%20%2C%200%20%2C%200%20%2C%200)%20%3B%20font-family%3A%20monospace%20%3B%20font-size%3A%200px%26quot%3B%26gt%3B%253CmxGraphModel%253E%253Croot%253E%253CmxCell%2520id%253D%25220%2522%252F%253E%253CmxCell%2520id%253D%25221%2522%2520parent%253D%25220%2522%252F%253E%253CmxCell%2520id%253D%25222%2522%2520value%253D%2522%2526lt%253Bfont%2520style%253D%2526quot%253Bfont-size%253A%252023px%2526quot%253B%2526gt%253BA%2526lt%253B%252Ffont%2526gt%253B%2522%2520style%253D%2522ellipse%253BwhiteSpace%253Dwrap%253Bhtml%253D1%253Baspect%253Dfixed%253BfontSize%253D12%253B%2522%2520vertex%253D%25221%2522%2520parent%253D%25221%2522%253E%253CmxGeometry%2520x%253D%2522140%2522%2520y%253D%2522970%2522%2520width%253D%252260%2522%2520height%253D%252260%2522%2520as%253D%2522geometry%2522%252F%253E%253C%252FmxCell%253E%253C%252Froot%253E%253C%252FmxGraphModel%253E%26lt%3B%2Fspan%26gt%3B%22%20style%3D%22ellipse%3BwhiteSpace%3Dwrap%3Bhtml%3D1%3Baspect%3Dfixed%3BfontSize%3D12%3B%22%20vertex%3D%221%22%20parent%3D%221%22%3E%3CmxGeometry%20x%3D%22260%22%20y%3D%22870%22%20width%3D%2260%22%20height%3D%2260%22%20as%3D%22geometry%22%2F%3E%3C%2FmxCell%3E%3C%2Froot%3E%3C%2FmxGraphModel%3E&lt;/span&gt;" style="ellipse;whiteSpace=wrap;html=1;aspect=fixed;fontSize=12;" vertex="1" parent="1">
          <mxGeometry x="480" y="870" width="60" height="60" as="geometry" />
        </mxCell>
        <mxCell id="JejmYuZqtl6U9vylK7YP-5" value="&lt;span style=&quot;font-size: 23px&quot;&gt;I&lt;/span&gt;" style="ellipse;whiteSpace=wrap;html=1;aspect=fixed;fontSize=12;" vertex="1" parent="1">
          <mxGeometry x="400" y="960" width="60" height="60" as="geometry" />
        </mxCell>
        <mxCell id="JejmYuZqtl6U9vylK7YP-6" value="&lt;span style=&quot;font-size: 23px&quot;&gt;G&lt;/span&gt;" style="ellipse;whiteSpace=wrap;html=1;aspect=fixed;fontSize=12;" vertex="1" parent="1">
          <mxGeometry x="480" y="1020" width="60" height="60" as="geometry" />
        </mxCell>
        <mxCell id="JejmYuZqtl6U9vylK7YP-7" value="&lt;span style=&quot;font-size: 23px&quot;&gt;E&lt;/span&gt;" style="ellipse;whiteSpace=wrap;html=1;aspect=fixed;fontSize=12;" vertex="1" parent="1">
          <mxGeometry x="665" y="1020" width="60" height="60" as="geometry" />
        </mxCell>
        <mxCell id="JejmYuZqtl6U9vylK7YP-8" value="&lt;span style=&quot;font-size: 23px&quot;&gt;D&lt;/span&gt;" style="ellipse;whiteSpace=wrap;html=1;aspect=fixed;fontSize=12;" vertex="1" parent="1">
          <mxGeometry x="665" y="870" width="60" height="60" as="geometry" />
        </mxCell>
        <mxCell id="JejmYuZqtl6U9vylK7YP-9" value="&lt;span style=&quot;font-size: 23px&quot;&gt;F&lt;/span&gt;" style="ellipse;whiteSpace=wrap;html=1;aspect=fixed;fontSize=12;" vertex="1" parent="1">
          <mxGeometry x="790" y="960" width="60" height="60" as="geometry" />
        </mxCell>
        <mxCell id="JejmYuZqtl6U9vylK7YP-10" value="" style="endArrow=none;html=1;rounded=0;fontSize=18;entryX=0;entryY=1;entryDx=0;entryDy=0;exitX=1;exitY=0;exitDx=0;exitDy=0;" edge="1" parent="1" source="JejmYuZqtl6U9vylK7YP-1" target="JejmYuZqtl6U9vylK7YP-2">
          <mxGeometry width="50" height="50" relative="1" as="geometry">
            <mxPoint x="200" y="980" as="sourcePoint" />
            <mxPoint x="250" y="930" as="targetPoint" />
          </mxGeometry>
        </mxCell>
        <mxCell id="JejmYuZqtl6U9vylK7YP-11" value="" style="endArrow=none;html=1;rounded=0;fontSize=18;entryX=0.5;entryY=1;entryDx=0;entryDy=0;exitX=0.5;exitY=0;exitDx=0;exitDy=0;" edge="1" parent="1" source="JejmYuZqtl6U9vylK7YP-3" target="JejmYuZqtl6U9vylK7YP-2">
          <mxGeometry width="50" height="50" relative="1" as="geometry">
            <mxPoint x="590" y="990" as="sourcePoint" />
            <mxPoint x="640" y="940" as="targetPoint" />
          </mxGeometry>
        </mxCell>
        <mxCell id="JejmYuZqtl6U9vylK7YP-12" value="" style="endArrow=none;html=1;rounded=0;fontSize=18;exitX=1;exitY=0.5;exitDx=0;exitDy=0;entryX=0;entryY=0.5;entryDx=0;entryDy=0;" edge="1" parent="1" source="JejmYuZqtl6U9vylK7YP-2" target="JejmYuZqtl6U9vylK7YP-4">
          <mxGeometry width="50" height="50" relative="1" as="geometry">
            <mxPoint x="360" y="920" as="sourcePoint" />
            <mxPoint x="410" y="870" as="targetPoint" />
          </mxGeometry>
        </mxCell>
        <mxCell id="JejmYuZqtl6U9vylK7YP-13" value="" style="endArrow=none;html=1;rounded=0;fontSize=18;exitX=1;exitY=0.5;exitDx=0;exitDy=0;entryX=0;entryY=0.5;entryDx=0;entryDy=0;" edge="1" parent="1" source="JejmYuZqtl6U9vylK7YP-4" target="JejmYuZqtl6U9vylK7YP-8">
          <mxGeometry width="50" height="50" relative="1" as="geometry">
            <mxPoint x="570" y="920" as="sourcePoint" />
            <mxPoint x="620" y="870" as="targetPoint" />
          </mxGeometry>
        </mxCell>
        <mxCell id="JejmYuZqtl6U9vylK7YP-14" value="" style="endArrow=none;html=1;rounded=0;fontSize=18;entryX=1;entryY=1;entryDx=0;entryDy=0;exitX=0;exitY=0;exitDx=0;exitDy=0;" edge="1" parent="1" source="JejmYuZqtl6U9vylK7YP-9" target="JejmYuZqtl6U9vylK7YP-8">
          <mxGeometry width="50" height="50" relative="1" as="geometry">
            <mxPoint x="730" y="980" as="sourcePoint" />
            <mxPoint x="780" y="930" as="targetPoint" />
          </mxGeometry>
        </mxCell>
        <mxCell id="JejmYuZqtl6U9vylK7YP-15" value="" style="endArrow=none;html=1;rounded=0;fontSize=18;entryX=1;entryY=1;entryDx=0;entryDy=0;exitX=0;exitY=0;exitDx=0;exitDy=0;" edge="1" parent="1" source="JejmYuZqtl6U9vylK7YP-7" target="JejmYuZqtl6U9vylK7YP-4">
          <mxGeometry width="50" height="50" relative="1" as="geometry">
            <mxPoint x="540" y="1000" as="sourcePoint" />
            <mxPoint x="590" y="950" as="targetPoint" />
          </mxGeometry>
        </mxCell>
        <mxCell id="JejmYuZqtl6U9vylK7YP-16" value="" style="endArrow=none;html=1;rounded=0;fontSize=18;exitX=1;exitY=0.5;exitDx=0;exitDy=0;entryX=0;entryY=0.5;entryDx=0;entryDy=0;" edge="1" parent="1" source="JejmYuZqtl6U9vylK7YP-6" target="JejmYuZqtl6U9vylK7YP-7">
          <mxGeometry width="50" height="50" relative="1" as="geometry">
            <mxPoint x="580" y="1080" as="sourcePoint" />
            <mxPoint x="630" y="1030" as="targetPoint" />
          </mxGeometry>
        </mxCell>
        <mxCell id="JejmYuZqtl6U9vylK7YP-17" value="" style="endArrow=none;html=1;rounded=0;fontSize=18;entryX=0;entryY=1;entryDx=0;entryDy=0;" edge="1" parent="1" target="JejmYuZqtl6U9vylK7YP-4">
          <mxGeometry width="50" height="50" relative="1" as="geometry">
            <mxPoint x="440" y="960" as="sourcePoint" />
            <mxPoint x="480" y="920" as="targetPoint" />
          </mxGeometry>
        </mxCell>
        <mxCell id="JejmYuZqtl6U9vylK7YP-18" value="15" style="text;html=1;strokeColor=none;fillColor=none;align=center;verticalAlign=middle;whiteSpace=wrap;rounded=0;fontSize=18;" vertex="1" parent="1">
          <mxGeometry x="170" y="920" width="60" height="30" as="geometry" />
        </mxCell>
        <mxCell id="JejmYuZqtl6U9vylK7YP-19" value="8" style="text;html=1;strokeColor=none;fillColor=none;align=center;verticalAlign=middle;whiteSpace=wrap;rounded=0;fontSize=18;" vertex="1" parent="1">
          <mxGeometry x="230" y="960" width="60" height="30" as="geometry" />
        </mxCell>
        <mxCell id="JejmYuZqtl6U9vylK7YP-20" value="2" style="text;html=1;strokeColor=none;fillColor=none;align=center;verticalAlign=middle;whiteSpace=wrap;rounded=0;fontSize=18;" vertex="1" parent="1">
          <mxGeometry x="350" y="860" width="60" height="30" as="geometry" />
        </mxCell>
        <mxCell id="JejmYuZqtl6U9vylK7YP-21" value="6" style="text;html=1;strokeColor=none;fillColor=none;align=center;verticalAlign=middle;whiteSpace=wrap;rounded=0;fontSize=18;" vertex="1" parent="1">
          <mxGeometry x="400" y="920" width="60" height="30" as="geometry" />
        </mxCell>
        <mxCell id="JejmYuZqtl6U9vylK7YP-22" value="12" style="text;html=1;strokeColor=none;fillColor=none;align=center;verticalAlign=middle;whiteSpace=wrap;rounded=0;fontSize=18;" vertex="1" parent="1">
          <mxGeometry x="570" y="860" width="60" height="30" as="geometry" />
        </mxCell>
        <mxCell id="JejmYuZqtl6U9vylK7YP-23" value="10" style="text;html=1;strokeColor=none;fillColor=none;align=center;verticalAlign=middle;whiteSpace=wrap;rounded=0;fontSize=18;" vertex="1" parent="1">
          <mxGeometry x="590" y="940" width="60" height="30" as="geometry" />
        </mxCell>
        <mxCell id="JejmYuZqtl6U9vylK7YP-24" value="4" style="text;html=1;strokeColor=none;fillColor=none;align=center;verticalAlign=middle;whiteSpace=wrap;rounded=0;fontSize=18;" vertex="1" parent="1">
          <mxGeometry x="760" y="910" width="60" height="30" as="geometry" />
        </mxCell>
        <mxCell id="JejmYuZqtl6U9vylK7YP-25" value="1" style="text;html=1;strokeColor=none;fillColor=none;align=center;verticalAlign=middle;whiteSpace=wrap;rounded=0;fontSize=18;" vertex="1" parent="1">
          <mxGeometry x="550" y="1000" width="60" height="30" as="geometry" />
        </mxCell>
        <mxCell id="JejmYuZqtl6U9vylK7YP-26" value="&lt;font style=&quot;font-size: 23px&quot;&gt;A&lt;/font&gt;" style="ellipse;whiteSpace=wrap;html=1;aspect=fixed;fontSize=12;" vertex="1" parent="1">
          <mxGeometry x="130" y="1290" width="60" height="60" as="geometry" />
        </mxCell>
        <mxCell id="JejmYuZqtl6U9vylK7YP-27" value="&lt;font style=&quot;font-size: 23px&quot;&gt;B&lt;/font&gt;&lt;span style=&quot;color: rgba(0 , 0 , 0 , 0) ; font-family: monospace ; font-size: 0px&quot;&gt;%3CmxGraphModel%3E%3Croot%3E%3CmxCell%20id%3D%220%22%2F%3E%3CmxCell%20id%3D%221%22%20parent%3D%220%22%2F%3E%3CmxCell%20id%3D%222%22%20value%3D%22%26lt%3Bfont%20style%3D%26quot%3Bfont-size%3A%2023px%26quot%3B%26gt%3BA%26lt%3B%2Ffont%26gt%3B%22%20style%3D%22ellipse%3BwhiteSpace%3Dwrap%3Bhtml%3D1%3Baspect%3Dfixed%3BfontSize%3D12%3B%22%20vertex%3D%221%22%20parent%3D%221%22%3E%3CmxGeometry%20x%3D%22140%22%20y%3D%22970%22%20width%3D%2260%22%20height%3D%2260%22%20as%3D%22geometry%22%2F%3E%3C%2FmxCell%3E%3C%2Froot%3E%3C%2FmxGraphModel%3E&lt;/span&gt;" style="ellipse;whiteSpace=wrap;html=1;aspect=fixed;fontSize=12;" vertex="1" parent="1">
          <mxGeometry x="250" y="1190" width="60" height="60" as="geometry" />
        </mxCell>
        <mxCell id="JejmYuZqtl6U9vylK7YP-28" value="&lt;span style=&quot;font-size: 23px&quot;&gt;C&lt;/span&gt;" style="ellipse;whiteSpace=wrap;html=1;aspect=fixed;fontSize=12;" vertex="1" parent="1">
          <mxGeometry x="260" y="1290" width="60" height="60" as="geometry" />
        </mxCell>
        <mxCell id="JejmYuZqtl6U9vylK7YP-29" value="&lt;span style=&quot;font-size: 23px&quot;&gt;D&lt;/span&gt;" style="ellipse;whiteSpace=wrap;html=1;aspect=fixed;fontSize=12;" vertex="1" parent="1">
          <mxGeometry x="420" y="1190" width="60" height="60" as="geometry" />
        </mxCell>
        <mxCell id="JejmYuZqtl6U9vylK7YP-30" value="&lt;span style=&quot;font-size: 23px&quot;&gt;E&lt;/span&gt;" style="ellipse;whiteSpace=wrap;html=1;aspect=fixed;fontSize=12;" vertex="1" parent="1">
          <mxGeometry x="420" y="1300" width="60" height="60" as="geometry" />
        </mxCell>
        <mxCell id="JejmYuZqtl6U9vylK7YP-31" value="&lt;span style=&quot;font-size: 23px&quot;&gt;F&lt;/span&gt;" style="ellipse;whiteSpace=wrap;html=1;aspect=fixed;fontSize=12;" vertex="1" parent="1">
          <mxGeometry x="425" y="1410" width="60" height="60" as="geometry" />
        </mxCell>
        <mxCell id="JejmYuZqtl6U9vylK7YP-32" value="&lt;span style=&quot;font-size: 23px&quot;&gt;G&lt;/span&gt;" style="ellipse;whiteSpace=wrap;html=1;aspect=fixed;fontSize=12;" vertex="1" parent="1">
          <mxGeometry x="570" y="1300" width="60" height="60" as="geometry" />
        </mxCell>
        <mxCell id="JejmYuZqtl6U9vylK7YP-33" value="" style="endArrow=none;html=1;rounded=0;fontSize=18;exitX=1;exitY=0;exitDx=0;exitDy=0;entryX=0;entryY=1;entryDx=0;entryDy=0;" edge="1" parent="1" source="JejmYuZqtl6U9vylK7YP-26" target="JejmYuZqtl6U9vylK7YP-27">
          <mxGeometry width="50" height="50" relative="1" as="geometry">
            <mxPoint x="200" y="1290" as="sourcePoint" />
            <mxPoint x="250" y="1240" as="targetPoint" />
          </mxGeometry>
        </mxCell>
        <mxCell id="JejmYuZqtl6U9vylK7YP-34" value="" style="endArrow=none;html=1;rounded=0;fontSize=18;exitX=1;exitY=0.5;exitDx=0;exitDy=0;entryX=0;entryY=1;entryDx=0;entryDy=0;" edge="1" parent="1" source="JejmYuZqtl6U9vylK7YP-28" target="JejmYuZqtl6U9vylK7YP-29">
          <mxGeometry width="50" height="50" relative="1" as="geometry">
            <mxPoint x="350" y="1330" as="sourcePoint" />
            <mxPoint x="400" y="1280" as="targetPoint" />
          </mxGeometry>
        </mxCell>
        <mxCell id="JejmYuZqtl6U9vylK7YP-35" value="" style="endArrow=none;html=1;rounded=0;fontSize=18;entryX=1;entryY=1;entryDx=0;entryDy=0;exitX=0.714;exitY=0.045;exitDx=0;exitDy=0;exitPerimeter=0;" edge="1" parent="1" source="JejmYuZqtl6U9vylK7YP-28" target="JejmYuZqtl6U9vylK7YP-27">
          <mxGeometry width="50" height="50" relative="1" as="geometry">
            <mxPoint x="270" y="1300" as="sourcePoint" />
            <mxPoint x="320" y="1250" as="targetPoint" />
          </mxGeometry>
        </mxCell>
        <mxCell id="JejmYuZqtl6U9vylK7YP-36" value="" style="endArrow=none;html=1;rounded=0;fontSize=18;exitX=0;exitY=0.5;exitDx=0;exitDy=0;" edge="1" parent="1" source="JejmYuZqtl6U9vylK7YP-31" target="JejmYuZqtl6U9vylK7YP-28">
          <mxGeometry width="50" height="50" relative="1" as="geometry">
            <mxPoint x="320" y="1420" as="sourcePoint" />
            <mxPoint x="370" y="1370" as="targetPoint" />
          </mxGeometry>
        </mxCell>
        <mxCell id="JejmYuZqtl6U9vylK7YP-37" value="" style="endArrow=none;html=1;rounded=0;fontSize=18;exitX=1;exitY=0.5;exitDx=0;exitDy=0;entryX=0;entryY=1;entryDx=0;entryDy=0;" edge="1" parent="1" source="JejmYuZqtl6U9vylK7YP-31" target="JejmYuZqtl6U9vylK7YP-32">
          <mxGeometry width="50" height="50" relative="1" as="geometry">
            <mxPoint x="530" y="1430" as="sourcePoint" />
            <mxPoint x="580" y="1380" as="targetPoint" />
          </mxGeometry>
        </mxCell>
        <mxCell id="JejmYuZqtl6U9vylK7YP-38" value="" style="endArrow=none;html=1;rounded=0;fontSize=18;entryX=0;entryY=0.5;entryDx=0;entryDy=0;exitX=1;exitY=0.5;exitDx=0;exitDy=0;" edge="1" parent="1" source="JejmYuZqtl6U9vylK7YP-30" target="JejmYuZqtl6U9vylK7YP-32">
          <mxGeometry width="50" height="50" relative="1" as="geometry">
            <mxPoint x="500" y="1360" as="sourcePoint" />
            <mxPoint x="550" y="1310" as="targetPoint" />
          </mxGeometry>
        </mxCell>
        <mxCell id="JejmYuZqtl6U9vylK7YP-39" value="3" style="text;html=1;strokeColor=none;fillColor=none;align=center;verticalAlign=middle;whiteSpace=wrap;rounded=0;fontSize=18;" vertex="1" parent="1">
          <mxGeometry x="160" y="1220" width="60" height="30" as="geometry" />
        </mxCell>
        <mxCell id="JejmYuZqtl6U9vylK7YP-40" value="2" style="text;html=1;strokeColor=none;fillColor=none;align=center;verticalAlign=middle;whiteSpace=wrap;rounded=0;fontSize=18;" vertex="1" parent="1">
          <mxGeometry x="240" y="1250" width="60" height="30" as="geometry" />
        </mxCell>
        <mxCell id="JejmYuZqtl6U9vylK7YP-41" value="5" style="text;html=1;strokeColor=none;fillColor=none;align=center;verticalAlign=middle;whiteSpace=wrap;rounded=0;fontSize=18;" vertex="1" parent="1">
          <mxGeometry x="340" y="1240" width="60" height="30" as="geometry" />
        </mxCell>
        <mxCell id="JejmYuZqtl6U9vylK7YP-42" value="4" style="text;html=1;strokeColor=none;fillColor=none;align=center;verticalAlign=middle;whiteSpace=wrap;rounded=0;fontSize=18;" vertex="1" parent="1">
          <mxGeometry x="310" y="1390" width="60" height="30" as="geometry" />
        </mxCell>
        <mxCell id="JejmYuZqtl6U9vylK7YP-43" value="1" style="text;html=1;strokeColor=none;fillColor=none;align=center;verticalAlign=middle;whiteSpace=wrap;rounded=0;fontSize=18;" vertex="1" parent="1">
          <mxGeometry x="520" y="1400" width="60" height="30" as="geometry" />
        </mxCell>
        <mxCell id="JejmYuZqtl6U9vylK7YP-44" value="6" style="text;html=1;strokeColor=none;fillColor=none;align=center;verticalAlign=middle;whiteSpace=wrap;rounded=0;fontSize=18;" vertex="1" parent="1">
          <mxGeometry x="500" y="1290" width="60" height="30" as="geometry" />
        </mxCell>
      </root>
    </mxGraphModel>
  </diagram>
</mxfile>
